# xmcd
#
# Track frame offsets: 
#        180
#        14215
#        42738
#        69028
#        83647
#        95362
#        113041
#        128193
#        141284
#        154535
#        186122
#        199144
#        226707
#        241457
#        254066
#        265007
#        276479
#        312517
#
# Disc length: 4304 seconds
#
# Revision: 4
# Processed by: cddbd v1.5.2PL0 Copyright (c) Steve Scherf et al.
# Submitted via: ExactAudioCopy v0.99pb5
#
DISCID=0310ce12
DTITLE=Stan Getz - Jazz Masters [CD 12)
DYEAR=2005
DGENRE=Jazz
TTITLE0=Autumn Leaves
TTITLE1=It Don't Mean a Thing
TTITLE2=Crazy Rhythm
TTITLE3=Moonlight In Vermont
TTITLE4=Crazy Chords
TTITLE5=Pot Luck
TTITLE6=Into It
TTITLE7=It's Wonderful
TTITLE8=Lover Come Back To Me
TTITLE9=Minor Blues
TTITLE10=It Might As Well Be Spring
TTITLE11=Spring Is Here
TTITLE12=Body And Soul
TTITLE13=Melody Express
TTITLE14=Lullaby Of Birdland
TTITLE15=Fools Rush In
TTITLE16=Fascinatin' Rhythm
TTITLE17=Sometimes I'm Happy
EXTD=YEAR: 2005
EXTT0=
EXTT1=
EXTT2=
EXTT3=
EXTT4=
EXTT5=
EXTT6=
EXTT7=
EXTT8=
EXTT9=
EXTT10=
EXTT11=
EXTT12=
EXTT13=
EXTT14=
EXTT15=
EXTT16=
EXTT17=
PLAYORDER=
